<svg width="615" height="457" viewBox="0 0 615 457" fill="none" xmlns="http://www.w3.org/2000/svg">
<mask id="mask0" mask-type="alpha" maskUnits="userSpaceOnUse" x="25" y="0" width="590" height="457">
<path d="M28.94 69.2738C15.1789 36.3338 39.3769 0 75.0759 0H565C592.614 0 615 22.3858 615 50V407C615 434.614 592.614 457 565 457H224.217C204.049 457 185.855 444.883 178.081 426.274L28.94 69.2738Z" fill="#C4C4C4"/>
</mask>
<g mask="url(#mask0)">
<rect x="-597" y="-26" width="1312" height="513" rx="5" fill="url(#paint0_linear)"/>
</g>
<g clip-path="url(#clip0)">
<path d="M343.314 222.129L341.998 225.465C341.998 225.465 345.945 228.952 343.314 230.449C343.314 230.449 357.009 229.602 343.314 222.129Z" fill="#3F3D56"/>
<path d="M186.783 330.165L185.191 334.67L198.242 340.771C198.242 340.771 210.372 342.295 214.102 339.103C216.365 337.112 218.018 334.524 218.871 331.636L186.783 330.165Z" fill="#333333"/>
<path d="M221.009 287.899C221.009 287.899 236.389 287.629 240.888 293.205C245.387 298.78 229.219 315.29 229.219 315.29L191.928 317.917L221.009 287.899Z" fill="#007DC6"/>
<path d="M221.009 287.899C221.009 287.899 236.389 287.629 240.888 293.205C245.387 298.78 229.219 315.29 229.219 315.29L191.928 317.917L221.009 287.899Z" fill="url(#paint1_linear)"/>
<path d="M220.457 311.836C220.457 311.836 252.768 314.745 258.386 316.814C269.003 320.8 265.845 335.694 261.017 337.284C257.011 338.63 226.541 349.761 216.799 353.327C215.992 353.618 215.103 353.589 214.316 353.246C213.529 352.903 212.904 352.271 212.57 351.482L209.228 343.529C209.045 343.093 208.955 342.624 208.965 342.152C208.975 341.68 209.084 341.215 209.286 340.788C209.488 340.361 209.777 339.98 210.135 339.672C210.494 339.364 210.913 339.134 211.366 338.998L230.534 333.304C230.534 333.304 202.078 336.167 196.328 334.893C183.6 332.109 171.049 315.848 177.732 301.65C184.416 287.452 220.457 311.836 220.457 311.836Z" fill="#007DC6"/>
<path d="M220.457 311.836C220.457 311.836 252.768 314.745 258.386 316.814C269.003 320.8 265.845 335.694 261.017 337.284C257.011 338.63 226.541 349.761 216.799 353.327C215.992 353.618 215.103 353.589 214.316 353.246C213.529 352.903 212.904 352.271 212.57 351.482L209.228 343.529C209.045 343.093 208.955 342.624 208.965 342.152C208.975 341.68 209.084 341.215 209.286 340.788C209.488 340.361 209.777 339.98 210.135 339.672C210.494 339.364 210.913 339.134 211.366 338.998L230.534 333.304C230.534 333.304 202.078 336.167 196.328 334.893C183.6 332.109 171.049 315.848 177.732 301.65C184.416 287.452 220.457 311.836 220.457 311.836Z" fill="url(#paint2_linear)"/>
<path d="M304.866 231.565L303.373 237.397L311.03 244.168C311.03 244.168 308.839 244.168 307.083 247.583L306.386 255.049C306.386 255.049 311.53 266.161 325.725 256.448L348.748 276.767L399.814 258.812L400.906 251.864L304.866 231.565Z" fill="#3F3D56"/>
<path d="M443.306 237.142L417.902 227.179C416.334 226.303 414.578 225.817 412.782 225.765C410.986 225.712 409.204 226.094 407.588 226.877C406.156 227.553 404.937 228.606 404.062 229.924C403.187 231.241 402.689 232.771 402.621 234.351C401.746 243.939 406.917 288.07 406.917 288.07C408.823 288.807 410.81 289.316 412.837 289.587C414.614 289.94 416.448 289.9 418.208 289.47C419.968 289.04 421.613 288.23 423.026 287.098L423.52 253.901C423.52 253.901 452.154 271.56 462.37 270.089C473.802 268.447 492.194 259.082 479.768 237.365C467.343 215.647 443.306 237.142 443.306 237.142Z" fill="#007DC6"/>
<path d="M443.306 237.142L417.902 227.179C416.334 226.303 414.578 225.817 412.782 225.765C410.986 225.712 409.204 226.094 407.588 226.877C406.156 227.553 404.937 228.606 404.062 229.924C403.187 231.241 402.689 232.771 402.621 234.351C401.746 243.939 406.917 288.07 406.917 288.07C408.823 288.807 410.81 289.316 412.837 289.587C414.614 289.94 416.448 289.9 418.208 289.47C419.968 289.04 421.613 288.23 423.026 287.098L423.52 253.901C423.52 253.901 452.154 271.56 462.37 270.089C473.802 268.447 492.194 259.082 479.768 237.365C467.343 215.647 443.306 237.142 443.306 237.142Z" fill="#02313D"/>
<path d="M422.257 178.746C422.257 178.746 414.797 202.453 412.784 207.536C410.771 212.619 375.5 216.849 375.5 216.849L376.816 232.065L416.981 227.087L429.058 209.651L422.257 178.746Z" fill="#007DC6"/>
<path opacity="0.61" d="M422.257 178.746C422.257 178.746 414.797 202.453 412.784 207.536C410.771 212.619 375.5 216.849 375.5 216.849L376.816 232.065L416.981 227.087L429.058 209.651L422.257 178.746Z" fill="#002E1E"/>
<path d="M442.347 170.879L450.523 175.41C465.712 182.181 471.231 197.252 479.782 237.47C479.782 237.47 472.599 253.506 446.156 242.723C446.156 242.723 428.211 216.547 425.251 206.735C422.29 196.924 414.838 180.04 428.54 173.585C442.242 167.129 442.347 170.879 442.347 170.879Z" fill="#007DC6"/>
<path opacity="0.05" d="M459.877 205.409L469.836 242.927C469.836 242.927 459.673 249.113 446.09 242.704C432.506 236.294 437.315 229.918 432.934 222.129L446.241 214.905L459.877 205.409Z" fill="#000405"/>
<path d="M441.194 169.257C440.683 170.362 439.959 171.355 439.063 172.18C438.167 173.005 437.116 173.646 435.972 174.066C434.828 174.485 433.612 174.676 432.394 174.626C431.176 174.576 429.98 174.287 428.874 173.775L428.492 173.591C428.492 173.591 420.809 186.968 431.781 185.373C437.596 184.525 442.688 175.883 443.661 171.503L441.194 169.257Z" fill="#333333"/>
<path d="M441.689 158.526C441.689 158.677 441.34 165.277 441.071 170.032C440.874 173.711 439.292 177.18 436.644 179.745C435.108 181.337 433.264 182.599 431.223 183.455C430.731 183.638 430.198 183.681 429.682 183.581C429.167 183.48 428.689 183.239 428.303 182.884C427.914 182.527 427.632 182.071 427.486 181.565C427.34 181.059 427.335 180.522 427.474 180.014C427.737 179.022 428 177.88 428.21 176.684C428.645 174.202 428.868 171.516 428.164 169.618C428.144 169.547 428.12 169.477 428.092 169.408C427.697 168.43 428.092 167.359 429.02 166.282C430.296 164.772 432.532 163.242 434.769 161.948C437.01 160.681 439.321 159.538 441.689 158.526Z" fill="url(#paint3_linear)"/>
<path d="M429.676 176.179C429.22 176.409 428.736 176.579 428.236 176.684C428.67 174.202 428.893 171.516 428.189 169.618L429.045 166.282L429.702 163.8L434.82 161.948L439.997 160.076C438.708 169.257 433.794 174.255 429.676 176.179Z" fill="url(#paint4_linear)"/>
<path d="M428.368 132.376C424.477 132.608 420.837 134.371 418.247 137.28C415.657 140.188 414.329 144.003 414.554 147.888C414.554 148.262 414.613 148.636 414.666 149.011C415.126 154.971 416.659 160.799 419.191 166.216C423.987 174.386 436.09 167.661 438.004 164.299C439.919 160.936 447.155 145.72 444.122 141.393C442.116 138.451 436.222 132.067 428.368 132.376Z" fill="url(#paint5_linear)"/>
<path d="M415.594 126.597L418.081 127.871C416.597 127.836 415.127 128.155 413.791 128.8C412.455 129.445 411.292 130.399 410.398 131.581C408.127 133.849 406.833 136.912 406.793 140.118L411.023 138.148C411.023 138.148 410.7 143.349 418.699 143.75C426.698 144.151 435.177 144.472 435.177 144.472L432.48 140.716C432.48 140.716 437.447 142.686 438.321 144.551C439.106 147.495 439.669 150.494 440.005 153.522C440.005 153.522 441.979 148.386 442.814 149.509C443.65 150.632 441.946 155.288 440.9 156.306C439.854 157.324 440.032 160.391 439.933 160.641C439.834 160.89 444.906 156.7 445.13 155.262C445.353 153.824 450.392 139.252 447.103 136.218L449.077 136.073C447.895 135.27 446.545 134.749 445.13 134.549C445.13 134.549 432.046 117.285 415.594 126.597Z" fill="#333333"/>
<path d="M375.454 218.754C372.922 218.312 370.433 217.653 368.014 216.784C364.138 215.779 360.172 215.161 356.174 214.938C356.174 214.938 355.404 217.565 357.489 218.104C359.575 218.642 361.963 219.522 361.963 219.522L353.266 220.396L345.215 221.492C345.215 221.492 345.984 224.119 348.149 224.119C348.774 225.251 349.617 226.248 350.629 227.055C352.16 228.437 353.58 229.937 354.878 231.54C355.97 232.402 357.135 233.168 358.358 233.832C358.805 233.832 375.757 231.862 376.776 230.246L375.454 218.754Z" fill="url(#paint6_linear)"/>
<path d="M446.169 242.724C446.169 242.724 448.8 255.799 452.701 259.089C452.701 259.089 427.125 279.014 425.935 293.429C424.271 313.353 487.203 282.455 487.203 282.455L482.848 271.448L455.562 283.525C455.562 283.525 472.165 272.322 480.44 261.112C486.926 252.22 483.401 244.037 479.783 237.68C479.717 237.47 464.055 250.394 446.169 242.724Z" fill="#007DC6"/>
<path d="M446.169 242.724C446.169 242.724 448.8 255.799 452.701 259.089C452.701 259.089 427.125 279.014 425.935 293.429C424.271 313.353 487.203 282.455 487.203 282.455L482.848 271.448L455.562 283.525C455.562 283.525 472.165 272.322 480.44 261.112C486.926 252.22 483.401 244.037 479.783 237.68C479.717 237.47 464.055 250.394 446.169 242.724Z" fill="#02313D"/>
<path d="M482.775 271.441L487.498 269.819L489.834 275.999L484.617 279.558L482.775 271.441Z" fill="url(#paint7_linear)"/>
<path d="M413.344 292.305L412.896 289.567C414.675 289.848 416.492 289.771 418.24 289.339C419.988 288.907 421.631 288.129 423.073 287.052L423.349 291.537C421.868 292.464 420.184 293.018 418.441 293.152C416.699 293.286 414.949 292.995 413.344 292.305Z" fill="url(#paint8_linear)"/>
<path d="M413.232 291.465L402.049 295.497C402.049 295.497 395.833 293.98 394.589 297.467C393.774 299.256 393.694 301.293 394.366 303.141C394.366 303.141 397.3 305.768 404.608 304.238C411.916 302.708 423.868 298.984 423.868 298.984L423.421 291.688C421.815 292.419 420.065 292.778 418.301 292.739C416.536 292.701 414.804 292.265 413.232 291.465Z" fill="#333333"/>
<path d="M488.393 268.4C488.393 268.4 485.584 269.55 485.907 270.292C486.229 271.034 487.222 269.399 489.735 276.025L488.123 277.2L491.623 284.667C490.703 285.36 489.973 286.273 489.501 287.323C489.028 288.372 488.828 289.523 488.919 290.67C489.268 292.489 492.498 292.738 495.083 291.845C497.668 290.952 498.786 285.219 498.786 285.219C498.786 285.219 497.096 271.474 493.616 269.182C490.136 266.89 488.393 268.4 488.393 268.4Z" fill="#333333"/>
<path d="M404.062 254.433L351.267 271.041L327.059 250.972C317.304 260.928 305.562 253.461 307.174 247.649C308.786 241.837 319.607 243.939 319.607 243.939L304.938 231.638L332.381 224.743C332.552 225.708 333.697 230.391 340.36 230.765C347.813 231.192 349.504 225.137 343.314 222.175L360.719 217.65L404.062 254.433Z" fill="#007DC6"/>
<path opacity="0.05" d="M389.958 247.912C389.597 248.008 389.256 248.168 388.952 248.384C388.67 248.654 388.419 248.954 388.202 249.278C387.228 250.486 385.643 250.965 384.202 251.537C382.574 252.179 381.028 253.012 379.598 254.019C379.383 254.141 379.214 254.33 379.117 254.557C378.9 255.26 379.992 255.608 380.361 256.245C380.469 256.485 380.506 256.751 380.466 257.011C380.427 257.27 380.312 257.513 380.137 257.71C379.783 258.097 379.362 258.417 378.894 258.655C376.388 260.182 374.2 262.175 372.447 264.526C380.406 260.393 388.702 256.944 397.246 254.216C397.912 254.05 398.536 253.751 399.082 253.336C399.351 253.124 399.55 252.835 399.65 252.508C399.75 252.18 399.747 251.83 399.641 251.504C399.496 251.182 400.003 251.097 399.74 250.847C398.457 249.704 396.299 247.793 394.582 246.395C394.609 246.408 391.307 247.465 389.958 247.912Z" fill="#000405"/>
<path d="M460.108 182.51C459.171 181.408 457.954 180.577 456.586 180.102C455.218 179.628 453.748 179.528 452.328 179.813C450.908 180.098 449.59 180.757 448.512 181.722C447.434 182.687 446.634 183.923 446.195 185.301C445.722 186.818 445.222 188.637 444.729 190.877C442.097 202.98 430.184 229.301 430.184 229.301L395.584 247.958L405.056 260.061L445.577 240.137C445.577 240.137 463.522 200.563 463.2 193.017C463.305 189.277 462.223 185.599 460.108 182.51Z" fill="#007DC6"/>
<path opacity="0.61" d="M460.108 182.51C459.171 181.408 457.954 180.577 456.586 180.102C455.218 179.628 453.748 179.528 452.328 179.813C450.908 180.098 449.59 180.757 448.512 181.722C447.434 182.687 446.634 183.923 446.195 185.301C445.722 186.818 445.222 188.637 444.729 190.877C442.097 202.98 430.184 229.301 430.184 229.301L395.584 247.958L405.056 260.061L445.577 240.137C445.577 240.137 463.522 200.563 463.2 193.017C463.305 189.277 462.223 185.599 460.108 182.51Z" fill="#2E1E00"/>
<path d="M398.544 249.651C396.044 250.323 393.492 250.78 390.914 251.017C386.971 251.731 383.109 252.831 379.382 254.301C379.382 254.301 379.777 256.993 381.869 256.619C383.961 256.245 386.513 256.074 386.513 256.074L379.06 260.533L372.199 264.913C372.199 264.913 373.988 266.982 375.949 266.056C377.001 266.818 378.192 267.369 379.455 267.678C381.415 268.287 383.326 269.045 385.171 269.944C386.526 270.269 387.905 270.478 389.296 270.568C389.697 270.39 404.386 261.426 404.484 259.561L398.544 249.651Z" fill="url(#paint9_linear)"/>
<path d="M282.941 244.845L295.571 249.823V257.296C295.571 257.296 280.441 257.618 280.441 264.165C280.441 270.713 294.709 275.848 304.273 267.107L326.047 279.585L325.257 285.981L259.056 309.892L221.127 263.692V256.226L282.941 244.845Z" fill="#3F3D56"/>
<path d="M282.941 237.47L295.597 249.796C295.597 249.796 280.467 250.125 280.467 256.672C280.467 263.219 294.735 268.355 304.3 259.607L326.073 279.532L259.753 302.872L221.127 256.35L247.15 248.404C247.15 248.404 238.875 242.848 246.827 239.138C248.297 238.417 249.891 237.987 251.524 237.87C257.767 237.621 258.76 240.832 259.582 244.346V244.621L282.941 237.47Z" fill="#007DC6"/>
<path opacity="0.05" d="M231.645 253.139C231.645 253.139 242.17 275.979 247.176 279.768C249.965 281.883 269.245 288.161 285.618 289.048C287.151 289.133 291.939 284.7 294.202 285.285C297.491 286.145 293.604 289.094 294.367 289.133C304.234 289.599 309.7 285.285 309.7 285.285L257.734 304.014L222.916 254.17L231.645 253.139Z" fill="#000405"/>
<path d="M282.35 294.026C284.113 291.723 286.129 289.626 288.362 287.774C290.188 286.686 292.153 285.849 294.203 285.285C294.203 285.285 295.124 288.076 293.546 288.602C291.967 289.127 291.059 291.885 291.059 291.885C291.059 291.885 302.544 294.079 303.932 293.402C305.32 292.726 305.452 294.873 302.742 295.274C300.031 295.674 300.11 299.555 298.269 299.871C296.427 300.186 293.697 301.939 290.987 302.59C287.846 302.859 284.683 302.714 281.58 302.156L282.35 294.026Z" fill="url(#paint10_linear)"/>
<path d="M229.653 260.882C231.142 252.795 230.153 244.448 226.814 236.932C223.475 229.416 217.942 223.08 210.938 218.754C208.445 217.048 205.586 215.948 202.591 215.542C190.56 214.846 177.732 301.637 177.732 301.637C177.732 301.637 183.528 318.449 201.071 320.065C217.28 321.562 220.437 311.823 220.437 311.823L229.653 260.882Z" fill="#007DC6"/>
<path opacity="0.61" d="M229.653 260.882C231.142 252.795 230.153 244.448 226.814 236.932C223.475 229.416 217.942 223.08 210.938 218.754C208.445 217.048 205.586 215.948 202.591 215.542C190.56 214.846 177.732 301.637 177.732 301.637C177.732 301.637 183.528 318.449 201.071 320.065C217.28 321.562 220.437 311.823 220.437 311.823L229.653 260.882Z" fill="url(#paint11_linear)"/>
<path d="M202.59 215.529C202.59 215.529 204.353 202.434 205.076 193.917C205.8 185.399 208.602 173.992 222.923 175.483C237.243 176.974 237.236 198.599 233.257 207.662C229.277 216.725 223.988 216.429 223.988 216.429C223.988 216.429 216.858 214.86 217.101 223.43L202.59 215.529Z" fill="url(#paint12_linear)"/>
<path d="M208.004 173.644C205.918 175.641 204.408 178.161 203.63 180.94C202.985 183.194 202.545 185.502 202.314 187.835L203.781 186.246C203.698 190.244 203.391 194.235 202.86 198.198C202.319 201.894 202.099 205.629 202.202 209.362L204.834 209.238L208.123 213.349L211.826 210.853L214.609 209.389L217.095 203.281C216.49 202.838 216.046 202.209 215.831 201.491C215.616 200.773 215.642 200.004 215.905 199.302C216.825 196.813 219.082 196.235 219.608 197.706C220.011 199.538 220.231 201.406 220.266 203.281L224.213 192.117C224.213 192.117 226.699 188.65 228.863 191.047C230.159 192.493 231.799 193.588 233.632 194.232L232.317 190.495L235.895 191.415L235.619 187.159L238.25 189.024C238.25 189.024 239.441 182.129 237.178 179.062C234.915 175.995 226.054 163.806 208.004 173.644Z" fill="#333333"/>
<path d="M282.716 291.813L253.418 288.648C249.458 287.887 245.837 285.908 243.063 282.986C240.289 280.065 238.502 276.349 237.953 272.361L227.119 239.361C226.463 237.291 225.24 235.445 223.588 234.032C221.936 232.62 219.921 231.697 217.771 231.369C216.075 231.116 214.342 231.296 212.735 231.894C211.127 232.491 209.698 233.486 208.581 234.785C207.463 236.085 206.694 237.646 206.346 239.322C205.998 240.999 206.081 242.736 206.589 244.372L217.771 284.215C218.298 288.59 220.313 292.651 223.48 295.72C226.648 298.789 230.774 300.678 235.17 301.073L281.124 307.055L282.716 291.813Z" fill="#007DC6"/>
<path opacity="0.61" d="M282.716 291.813L253.418 288.648C249.458 287.887 245.837 285.908 243.063 282.986C240.289 280.065 238.502 276.349 237.953 272.361L227.119 239.361C226.463 237.291 225.24 235.445 223.588 234.032C221.936 232.62 219.921 231.697 217.771 231.369C216.075 231.116 214.342 231.296 212.735 231.894C211.127 232.491 209.698 233.486 208.581 234.785C207.463 236.085 206.694 237.646 206.346 239.322C205.998 240.999 206.081 242.736 206.589 244.372L217.771 284.215C218.298 288.59 220.313 292.651 223.48 295.72C226.648 298.789 230.774 300.678 235.17 301.073L281.124 307.055L282.716 291.813Z" fill="url(#paint13_linear)"/>
<path d="M210.391 340.245L201.768 342.215L205.221 352.178L214.246 350.096C214.246 350.096 216.66 342.393 210.391 340.245Z" fill="url(#paint14_linear)"/>
<path d="M198.243 340.77C198.243 340.77 203.887 339.575 204.821 341.493C205.755 343.41 202.756 343.286 203.354 346.004C203.856 348.072 204.477 350.109 205.216 352.105L207.998 351.481L208.571 354.765C208.693 355.329 209.008 355.834 209.461 356.193C209.915 356.552 210.478 356.744 211.057 356.735C217.569 357.109 216.701 363.007 214.412 363.23L205.985 363.887L201.532 360.143C200.999 359.774 200.578 359.265 200.315 358.672C198.69 355.487 193.698 343.634 198.243 340.77Z" fill="#333333"/>
<path opacity="0.4" d="M335.334 137.682C334.904 138.305 334.529 138.964 334.216 139.653C332.328 143.685 325.941 158.106 325.007 170.603C324.821 173.645 323.524 176.512 321.36 178.661C319.197 180.809 316.319 182.09 313.272 182.26L301.865 182.917L298.136 183.114C295.14 183.291 292.18 182.379 289.805 180.548C287.429 178.717 285.797 176.09 285.21 173.152C282.875 161.646 277.902 144.066 268.238 136.297C268.238 136.297 225.633 97.3472 254.043 53.9122C255.953 50.9776 258.088 48.1956 260.43 45.5917C290.249 12.6379 339.465 27.6503 351.293 58.2597C363.12 88.869 340.038 131.083 335.334 137.682Z" fill="#007DC6"/>
<path d="M326.638 187.639C325.645 190.128 324.5 191.323 325.494 192.971C326.487 194.619 329.348 199.052 314.831 201.022C311.823 201.437 308.795 201.678 305.759 201.745H301.01L298.228 201.62C295.05 201.423 292.485 201.101 290.775 200.825C289.845 200.689 288.955 200.359 288.161 199.857C287.368 199.355 286.689 198.691 286.17 197.91C285.916 197.322 285.83 196.675 285.923 196.042C286.016 195.409 286.284 194.814 286.696 194.324C286.881 194.152 287.031 193.946 287.136 193.717C287.241 193.488 287.3 193.24 287.309 192.988C287.318 192.736 287.277 192.485 287.189 192.249C287.101 192.013 286.967 191.796 286.795 191.612C286.598 191.407 286.361 191.246 286.098 191.139C285.313 190.402 284.847 189.388 284.801 188.313C284.754 187.238 285.13 186.188 285.848 185.386C286.203 185.019 286.499 184.598 286.723 184.138C287.033 183.428 287.144 182.647 287.043 181.879C286.943 181.11 286.634 180.384 286.15 179.778L285.749 179.285C285.195 178.538 284.791 177.69 284.558 176.79C284.317 176.171 284.245 175.499 284.35 174.843C284.455 174.188 284.734 173.572 285.157 173.06C285.744 175.996 287.375 178.622 289.75 180.452C292.125 182.282 295.082 183.192 298.076 183.015L301.806 182.792C301.912 182.648 301.997 182.488 302.056 182.319C302.714 180.73 301.234 178.885 301.984 176.409L304.786 176.284C311.676 175.873 318.48 174.548 325.02 172.344C325.734 172.934 326.223 173.752 326.404 174.66C326.585 175.568 326.447 176.51 326.013 177.328C325.755 177.88 325.58 178.466 325.494 179.068C325.323 180.331 325.539 181.615 326.112 182.753C326.177 182.891 326.252 183.025 326.336 183.153C326.734 183.825 326.97 184.581 327.022 185.36C327.075 186.139 326.943 186.92 326.638 187.639Z" fill="#007DC6"/>
<path d="M285.184 173.046C298.196 169.68 311.821 169.432 324.948 172.324C324.948 172.324 303.398 181.137 285.184 173.046Z" fill="#333333"/>
<path d="M304.268 201.508C303.185 201.72 302.08 201.795 300.979 201.731L298.19 201.606C295.012 201.409 292.454 201.088 290.737 200.812C289.807 200.676 288.917 200.346 288.123 199.844C287.33 199.341 286.651 198.678 286.132 197.896C285.876 197.309 285.789 196.663 285.881 196.029C285.973 195.396 286.24 194.801 286.652 194.31C286.885 194.087 287.06 193.809 287.161 193.503C287.262 193.196 287.286 192.869 287.231 192.55C287.171 192.233 287.032 191.936 286.826 191.686C286.62 191.437 286.354 191.244 286.053 191.125C285.268 190.388 284.802 189.374 284.757 188.298C284.711 187.223 285.089 186.173 285.81 185.372C286.543 184.64 286.978 183.662 287.033 182.628C287.088 181.594 286.757 180.576 286.106 179.771C285.376 178.909 284.85 177.895 284.566 176.802C284.325 176.184 284.253 175.513 284.357 174.857C284.461 174.202 284.737 173.586 285.159 173.072C291.393 175.456 298.051 176.54 304.722 176.257L305.044 176.408C305.044 176.408 302.557 177.354 303.202 179.521C303.847 181.688 304.794 185.596 302.656 188.137C300.518 190.679 304.629 191.375 303.853 194.238V194.514C303.537 195.367 303.295 196.246 303.13 197.141C302.682 199.393 302.893 201.311 304.268 201.508Z" fill="url(#paint15_linear)"/>
<path opacity="0.49" d="M304.767 176.231C298.09 176.52 291.424 175.436 285.184 173.046C282.869 161.612 277.896 144.032 268.233 136.27C268.233 136.27 225.627 97.3203 254.037 53.8854C255.947 50.9507 258.082 48.1688 260.424 45.5648L264.253 45.2168C264.253 45.2168 289.736 31.8133 300.544 46.4842C311.352 61.1552 287.763 77.7372 286.526 104.531C285.289 131.325 315.989 136.283 304.767 176.231Z" fill="white"/>
<path d="M323.284 194.534C321.443 195.729 314.832 197.975 303.05 197.161C297.528 196.722 292.06 195.755 286.724 194.271C286.909 194.099 287.058 193.893 287.163 193.664C287.268 193.435 287.327 193.187 287.336 192.935C287.345 192.683 287.305 192.432 287.217 192.196C287.128 191.96 286.994 191.743 286.822 191.559C286.626 191.354 286.388 191.193 286.125 191.086C291.846 193.043 297.839 194.093 303.886 194.199C310.674 194.388 317.452 193.549 323.988 191.71C323.988 191.71 326.041 192.741 323.284 194.534Z" fill="url(#paint16_linear)"/>
<path d="M326.093 182.779C323.883 184.624 315.529 188.033 303.451 186.864C297.78 186.658 292.159 185.729 286.724 184.099C287.034 183.39 287.145 182.61 287.045 181.842C286.944 181.075 286.635 180.35 286.151 179.745L285.75 179.246C286.546 179.548 287.888 179.968 289.697 180.441C293.773 181.471 297.934 182.13 302.129 182.411H304.063C311.367 182.704 318.658 181.553 325.514 179.022C325.315 180.304 325.517 181.616 326.093 182.779Z" fill="url(#paint17_linear)"/>
<path d="M243.375 242.927L243.526 249.494L247.177 248.371C247.177 248.371 243.375 245.737 243.375 242.927Z" fill="#3F3D56"/>
<path d="M323.395 109.824L322.599 109.286C323.799 105.664 324.222 101.832 323.843 98.0364C322.895 89.9982 317.212 85.0926 307.858 84.2454C293.518 82.886 287.841 90.274 285.736 94.7922C279.658 107.421 285.157 127.871 293.919 137.045C304.72 148.301 300.55 169.526 299.024 175.791C298.972 175.944 298.938 176.103 298.925 176.264V176.684L301.129 177.433L301.287 176.816C302.594 171.801 303.353 166.659 303.549 161.481C303.938 150.317 301.26 141.287 295.781 135.377C287.69 126.912 282.434 107.368 288.019 95.8036C291.406 88.8752 298.241 85.6836 307.799 86.5702C318.199 87.5553 321.073 93.5116 321.652 98.3122C321.954 101.601 321.594 104.917 320.593 108.064C318.271 106.893 315.605 106.595 313.081 107.224C308.154 108.577 305.043 113.673 303.299 117.692C302.864 118.691 302.729 119.795 302.913 120.87C303.096 121.944 303.589 122.942 304.332 123.74C305.057 124.521 305.993 125.078 307.026 125.342C308.06 125.606 309.148 125.568 310.16 125.231C314.601 123.661 319.231 118.224 321.836 111.591L322.093 111.768C329.329 116.851 324.165 124.686 318.225 133.768C313.995 140.132 308.746 148.052 308.18 155.853C307.523 162.841 307.825 168.364 308.299 175.397L308.332 175.955H310.7L310.667 175.299C310.206 168.278 309.93 162.821 310.548 156.031C311.055 148.886 315.89 141.537 320.152 135.016L320.343 134.72C326.513 125.244 332.348 116.247 323.395 109.824ZM309.292 122.959C308.72 123.154 308.103 123.177 307.517 123.024C306.932 122.871 306.406 122.549 306.003 122.098C305.569 121.638 305.281 121.061 305.176 120.438C305.071 119.815 305.152 119.175 305.411 118.598C306.661 115.702 309.397 110.652 313.653 109.47C314.262 109.305 314.89 109.221 315.521 109.22C316.974 109.269 318.398 109.637 319.692 110.297C317.212 116.556 312.996 121.724 309.292 122.972V122.959ZM321.251 109.739L321.356 109.811L321.251 109.739Z" fill="white"/>
</g>
<defs>
<linearGradient id="paint0_linear" x1="283" y1="47" x2="624.5" y2="458" gradientUnits="userSpaceOnUse">
<stop stop-color="#44B0EF" stop-opacity="0.1"/>
<stop offset="1" stop-color="white" stop-opacity="0"/>
</linearGradient>
<linearGradient id="paint1_linear" x1="191.928" y1="302.904" x2="241.677" y2="302.904" gradientUnits="userSpaceOnUse">
<stop stop-opacity="0"/>
<stop offset="0.91" stop-opacity="0.8"/>
<stop offset="1"/>
</linearGradient>
<linearGradient id="paint2_linear" x1="30791.8" y1="12858.8" x2="26518.2" y2="5086.84" gradientUnits="userSpaceOnUse">
<stop stop-opacity="0"/>
<stop offset="0.91" stop-opacity="0.8"/>
<stop offset="1"/>
</linearGradient>
<linearGradient id="paint3_linear" x1="427.401" y1="171.083" x2="441.715" y2="171.083" gradientUnits="userSpaceOnUse">
<stop stop-color="#ECC4D7"/>
<stop offset="0.42" stop-color="#EFD4D1"/>
<stop offset="1" stop-color="#F2EAC9"/>
</linearGradient>
<linearGradient id="paint4_linear" x1="7614.17" y1="6676.5" x2="6902.58" y2="5834.79" gradientUnits="userSpaceOnUse">
<stop stop-color="#ECC4D7"/>
<stop offset="0.42" stop-color="#EFD4D1"/>
<stop offset="1" stop-color="#F2EAC9"/>
</linearGradient>
<linearGradient id="paint5_linear" x1="17842.4" y1="15484.7" x2="19240.1" y2="15484.7" gradientUnits="userSpaceOnUse">
<stop stop-color="#ECC4D7"/>
<stop offset="0.42" stop-color="#EFD4D1"/>
<stop offset="1" stop-color="#F2EAC9"/>
</linearGradient>
<linearGradient id="paint6_linear" x1="15156.7" y1="5796.67" x2="16671" y2="5796.67" gradientUnits="userSpaceOnUse">
<stop stop-color="#ECC4D7"/>
<stop offset="0.42" stop-color="#EFD4D1"/>
<stop offset="1" stop-color="#F2EAC9"/>
</linearGradient>
<linearGradient id="paint7_linear" x1="4665.14" y1="-1955.52" x2="4740.87" y2="-1955.52" gradientUnits="userSpaceOnUse">
<stop stop-color="#ECC4D7"/>
<stop offset="0.42" stop-color="#EFD4D1"/>
<stop offset="1" stop-color="#F2EAC9"/>
</linearGradient>
<linearGradient id="paint8_linear" x1="6393.93" y1="1484.57" x2="6560.23" y2="1484.57" gradientUnits="userSpaceOnUse">
<stop stop-color="#ECC4D7"/>
<stop offset="0.42" stop-color="#EFD4D1"/>
<stop offset="1" stop-color="#F2EAC9"/>
</linearGradient>
<linearGradient id="paint9_linear" x1="16849.2" y1="5290.9" x2="18433.7" y2="5290.9" gradientUnits="userSpaceOnUse">
<stop stop-color="#ECC4D7"/>
<stop offset="0.42" stop-color="#EFD4D1"/>
<stop offset="1" stop-color="#F2EAC9"/>
</linearGradient>
<linearGradient id="paint10_linear" x1="8970.52" y1="3587.8" x2="9797.21" y2="3587.8" gradientUnits="userSpaceOnUse">
<stop stop-color="#ECC4D7"/>
<stop offset="0.42" stop-color="#EFD4D1"/>
<stop offset="1" stop-color="#F2EAC9"/>
</linearGradient>
<linearGradient id="paint11_linear" x1="10087.7" y1="25012.8" x2="14473.6" y2="24747.6" gradientUnits="userSpaceOnUse">
<stop offset="0.36" stop-color="#00272E"/>
<stop offset="1" stop-color="#69B9EB" stop-opacity="0"/>
</linearGradient>
<linearGradient id="paint12_linear" x1="8521.09" y1="16209.2" x2="10170.8" y2="16209.2" gradientUnits="userSpaceOnUse">
<stop stop-color="#ECC4D7"/>
<stop offset="0.42" stop-color="#EFD4D1"/>
<stop offset="1" stop-color="#F2EAC9"/>
</linearGradient>
<linearGradient id="paint13_linear" x1="17430.9" y1="12405.9" x2="25294.1" y2="17962.8" gradientUnits="userSpaceOnUse">
<stop offset="0.36" stop-color="#00272E"/>
<stop offset="1" stop-color="#69B9EB" stop-opacity="0"/>
</linearGradient>
<linearGradient id="paint14_linear" x1="3452.08" y1="1651.74" x2="3706.27" y2="1651.74" gradientUnits="userSpaceOnUse">
<stop stop-color="#ECC4D7"/>
<stop offset="0.42" stop-color="#EFD4D1"/>
<stop offset="1" stop-color="#F2EAC9"/>
</linearGradient>
<linearGradient id="paint15_linear" x1="8850.3" y1="10237.2" x2="7596.38" y2="10270.2" gradientUnits="userSpaceOnUse">
<stop stop-opacity="0"/>
<stop offset="0.91" stop-opacity="0.8"/>
<stop offset="1"/>
</linearGradient>
<linearGradient id="paint16_linear" x1="303.925" y1="169.927" x2="308.377" y2="235.481" gradientUnits="userSpaceOnUse">
<stop stop-color="#68E1FD" stop-opacity="0"/>
<stop offset="0.02" stop-color="#66DAF6" stop-opacity="0.04"/>
<stop offset="0.18" stop-color="#58A1BC" stop-opacity="0.39"/>
<stop offset="0.35" stop-color="#4D758F" stop-opacity="0.66"/>
<stop offset="0.53" stop-color="#45566F" stop-opacity="0.85"/>
<stop offset="0.73" stop-color="#40435C" stop-opacity="0.96"/>
<stop offset="0.99" stop-color="#3F3D56"/>
</linearGradient>
<linearGradient id="paint17_linear" x1="16763.9" y1="3237" x2="16774.9" y2="2426.97" gradientUnits="userSpaceOnUse">
<stop stop-color="#68E1FD" stop-opacity="0"/>
<stop offset="0.02" stop-color="#66DAF6" stop-opacity="0.04"/>
<stop offset="0.18" stop-color="#58A1BC" stop-opacity="0.39"/>
<stop offset="0.35" stop-color="#4D758F" stop-opacity="0.66"/>
<stop offset="0.53" stop-color="#45566F" stop-opacity="0.85"/>
<stop offset="0.73" stop-color="#40435C" stop-opacity="0.96"/>
<stop offset="0.99" stop-color="#3F3D56"/>
</linearGradient>
<clipPath id="clip0">
<rect width="429" height="391" fill="white" transform="translate(93 27)"/>
</clipPath>
</defs>
</svg>
